<?xml version="1.0" encoding="UTF-8" standalone="no"?>
<svg width="97px" height="125px" viewBox="0 0 97 125" version="1.1" xmlns="http://www.w3.org/2000/svg" xmlns:xlink="http://www.w3.org/1999/xlink">
    <!-- Generator: Sketch 39.1 (31720) - http://www.bohemiancoding.com/sketch -->
    <title>Palmtree</title>
    <desc>Created with Sketch.</desc>
    <defs></defs>
    <g id="Page-1" stroke="none" stroke-width="1" fill="none" fill-rule="evenodd">
        <g id="Desktop" transform="translate(-463.000000, -251.000000)">
            <g id="Palmtree" transform="translate(464.000000, 252.000000)">
                <path d="M53.4234159,54.9175221 C51.4661799,49.3952904 46.2314767,48.2264051 42.3632514,51.733811 L49.8795267,44.9186371 C45.7284025,48.6825537 40.664151,57.5486668 38.5645993,64.7339927 L33.0404757,83.6392804 L25.2440146,114.656073 L25.2440146,119.8091 L25.2440146,119.8091 C25.6078042,121.847528 27.6952266,123.5 29.9032654,123.5 L25.9027139,123.5 C28.4444444,123.5 33.1887391,123.5 36.5109453,123.5 L30.5049241,123.5 C35.3572708,123.5 42.3632517,123.5 42.3632517,123.5 L39.2908751,123.5 C40.9877018,123.5 42.6164886,121.731554 42.9297916,119.543645 L43.62968,114.656069 L43.62968,104.911947 L43.62968,98.9195503 C43.62968,93.9457122 44.487919,85.9803068 45.5488369,81.118116 L49.0840093,64.9164072 L49.0840093,64.9164072 C51.4805974,59.3941754 51.7759699,50.2693455 49.8795267,44.9186371 L53.4234159,54.9175221 Z" id="Path" stroke-opacity="0.672044837" stroke="#504242"></path>
                <path d="M37.0944764,70.9500064 C37.0944764,70.9500064 37.6842157,71.1097747 38.4217728,71.3095888 L47.2472392,73.7005261" id="Path-2" stroke="#979797"></path>
                <path d="M54.4151543,54.9382201 C56.4877515,54.9382201 58.1679235,52.7463756 58.1679235,50.0425983 C58.1679235,47.3388211 56.4877515,45.1469766 54.4151543,45.1469766 C52.342557,45.1469766 50.662385,47.3388211 50.662385,50.0425983 C50.662385,52.7463756 52.342557,54.9382201 54.4151543,54.9382201 Z" id="Oval" stroke="#979797" fill="#D8D8D8" fill-rule="evenodd"></path>
                <ellipse id="Oval-2" stroke="#979797" fill="#D8D8D8" fill-rule="evenodd" cx="50.662385" cy="54.9382201" rx="3.75276926" ry="4.89562176"></ellipse>
                <ellipse id="Oval-3" stroke="#979797" fill="#D8D8D8" fill-rule="evenodd" cx="46.9096158" cy="50.0425983" rx="3.75276926" ry="4.89562176"></ellipse>
                <path d="M95.0976777,70.0839662 C95.0546906,70.2380398 95.0065594,70.3888695 94.953399,70.5364461 L54.4310805,51.2959512 C54.4630724,51.1383275 54.5005204,50.9824253 54.5435075,50.8283518 C55.7655295,46.448402 61.1447059,44.6899275 68.0386108,45.7636775 L68.4263083,51.1683006 L71.9439209,46.6345676 C73.7222087,47.1453084 75.5608284,47.823706 77.4224837,48.6727351 L77.8038115,54.0579099 L80.6884479,50.3311038 C82.4438931,51.3170888 84.0883265,52.4008529 85.5950049,53.5492905 L86.2348787,59.624027 L88.9433429,56.4229433 C93.6798943,61.0200486 96.1956794,66.1485278 95.0976777,70.0839662" id="Combined-Shape" stroke="#979797" fill="#D8D8D8" fill-rule="evenodd"></path>
                <path d="M69.1039309,2.30760986 C69.212778,2.38959069 69.3182831,2.47761702 69.420459,2.57153947 L47.8589806,51.290172 C47.7455442,51.2217004 47.6343548,51.146518 47.5255077,51.0645372 C44.4312395,48.7340146 44.0378328,41.5179396 46.045532,32.8476779 L50.1928616,33.2880993 L47.381126,27.9816883 C48.075486,25.785781 48.9068885,23.5414776 49.8711025,21.2972099 L54.0026444,21.7424374 L51.6901512,17.3893431 C52.7393115,15.3053073 53.8430092,13.3808695 54.9716088,11.6446384 L59.668604,11.8774486 L57.7223922,7.84197638 C62.0152888,2.55512751 66.3236931,0.2136068 69.1039309,2.30760986" id="Combined-Shape" stroke="#979797" fill="#D8D8D8" fill-rule="evenodd"></path>
                <path d="M91.6003897,16.576699 C91.6632326,16.718694 91.7208641,16.8637446 91.7733526,17.0117299 L54.4277795,45.1394433 C54.3557843,45.0061542 54.2883072,44.8685191 54.2254643,44.7265242 C52.4389877,40.6899407 54.8640511,34.1840297 59.9258911,27.9849206 L63.34878,31.0715067 L62.9475767,24.6420151 C64.3905533,23.1932123 65.9707613,21.7918857 67.6659738,20.4772187 L71.0733481,23.5576691 L70.7391159,18.2794138 C72.4464807,17.1589195 74.1399058,16.212214 75.7827611,15.4447431 L79.7612473,18.7100618 L79.6224866,13.9457888 C85.3665774,12.167362 89.9952186,12.9497793 91.6003897,16.576699" id="Combined-Shape" stroke="#979797" fill="#D8D8D8" fill-rule="evenodd"></path>
                <path d="M44.9156289,44.7346543 C44.819348,44.8400468 44.7198554,44.9392747 44.6172542,45.032405 L16.8983574,1.93824045 C16.9864769,1.82260163 17.0786618,1.71201254 17.1749427,1.60662002 C19.9119836,-1.38944205 25.2444718,0.596338373 30.8032237,6.02290595 L29.0675059,10.9563295 L33.8515283,9.32442727 C35.195815,10.9266618 36.5280914,12.7134439 37.814918,14.6630227 L36.0811379,19.5754488 L40.0077095,18.2294956 C41.1500632,20.2284043 42.1588012,22.2395826 43.023452,24.2169167 L41.2492855,29.8951619 L44.8217896,28.8895863 C47.1617936,35.9602967 47.3748936,42.0426558 44.9156289,44.7346543" id="Combined-Shape" stroke="#979797" fill="#D8D8D8" fill-rule="evenodd"></path>
                <path d="M43.1568465,47.5894349 C43.1568465,47.7533965 43.1511621,47.9166052 43.139899,48.0790008 L0.0169472496,48.078997 C0.00568439713,47.9166052 0,47.7533965 0,47.5894349 C0,42.9283897 4.59373968,38.8758966 11.3534045,36.8089862 L13.1346924,41.7146887 L15.2515235,35.8848937 C17.0564722,35.5714009 18.9620703,35.3885354 20.9340505,35.3557331 L22.704254,40.2460022 L24.4378402,35.4568901 C26.3459224,35.6001728 28.175323,35.8848687 29.8922323,36.2918011 L32.0861772,41.7146887 L33.7920484,37.4981982 C39.4482091,39.7047214 43.1568465,43.4014287 43.1568465,47.5894349 Z" id="Combined-Shape" stroke="#979797" fill="#D8D8D8" fill-rule="evenodd"></path>
                <path d="M34.1844342,80 L45.0450863,81 L34.1844342,80 Z" id="Path-3" stroke="#979797"></path>
                <path d="M31.446602,89 L43.7474163,90 L31.446602,89 Z" id="Path-4" stroke="#979797"></path>
                <polygon id="Path-5" stroke="#979797" points="28.68591 99.3538198 37.0761742 101.012569 43.6041621 102.303148"></polygon>
                <polygon id="Path-6" stroke="#979797" points="26.4677554 108.81016 30.9362776 109.546954 44.0293528 111.705811"></polygon>
            </g>
        </g>
    </g>
</svg>